<svg clip-rule="evenodd" fill-rule="evenodd" stroke-linejoin="round" stroke-miterlimit="2" viewBox="0 0 1024 1024" xmlns="http://www.w3.org/2000/svg" width="1.5rem" height="1.5rem" class="brandhub-icon"><path d="M512 0c282.77 0 512 230.58 512 515.02 0 257.06-187.23 470.12-432 508.76V663.89h119.3L734 515.02l-1.243-.031.564-3.539-141.32-.002v-93.037c0-38.958 18.148-76.974 75.388-80.206l8.05-.222h64.562v-126.74l-.421-.071-.023-2.045s-60.882-10.011-119.09-10.011c-121.52 0-200.94 70.956-200.94 199.42v112.92h-135.08v152.45l135.05-.045.024 357.8C169.871 961.152 6.471 779.381.161 528.281l-.166-13.256c0-284.44 229.23-515.02 512-515.02V.004z" fill="white"></path></svg>