<svg xmlns="http://www.w3.org/2000/svg" viewBox="0 0 32 32" width="1.5rem" height="1.5rem" class="brandhub-icon"><path d="M16 7.677c-4.516 0-8.258 3.677-8.258 8.258s3.677 8.258 8.258 8.258c4.581 0 8.258-3.742 8.258-8.258S20.516 7.677 16 7.677zm0 13.549c-2.903 0-5.29-2.387-5.29-5.29s2.387-5.29 5.29-5.29 5.29 2.387 5.29 5.29-2.387 5.29-5.29 5.29zM26.452 7.484a1.871 1.871 0 11-3.743 0 1.871 1.871 0 013.743 0z" fill="white"></path><path d="M29.419 2.645C27.742.903 25.355 0 22.645 0H9.355C3.742 0 0 3.742 0 9.355v13.226c0 2.774.903 5.161 2.71 6.903C4.452 31.161 6.774 32 9.42 32h13.161c2.774 0 5.097-.903 6.774-2.516C31.097 27.807 32 25.42 32 22.645V9.355c0-2.71-.903-5.032-2.581-6.71zm-.258 20c0 2-.71 3.613-1.871 4.71s-2.774 1.677-4.71 1.677H9.419c-1.935 0-3.548-.581-4.71-1.677-1.161-1.161-1.742-2.774-1.742-4.774V9.355c0-1.935.581-3.548 1.742-4.71 1.097-1.097 2.774-1.677 4.71-1.677h13.29c1.935 0 3.548.581 4.71 1.742 1.097 1.161 1.742 2.774 1.742 4.645v13.29z" fill="white"></path></svg>